<svg width="32" height="27" viewBox="0 0 32 27" fill="none" xmlns="http://www.w3.org/2000/svg">
<path fill-rule="evenodd" clip-rule="evenodd" d="M16 25.776C14.2787 26.717 12.3871 27.1262 10.4989 26.9661C8.61072 26.806 6.78647 26.0816 5.19366 24.8595C3.60086 23.6375 2.29055 21.9568 1.38306 19.972C0.475578 17.9871 0 15.7617 0 13.5C0 11.2383 0.475578 9.01286 1.38306 7.02801C2.29055 5.04317 3.60086 3.36254 5.19366 2.14046C6.78647 0.918379 8.61072 0.194014 10.4989 0.0338826C12.3871 -0.126249 14.2787 0.282984 16 1.224C17.7213 0.282984 19.6129 -0.126249 21.5011 0.0338826C23.3893 0.194014 25.2135 0.918379 26.8063 2.14046C28.3991 3.36254 29.7094 5.04317 30.6169 7.02801C31.5244 9.01286 32 11.2383 32 13.5C32 15.7617 31.5244 17.9871 30.6169 19.972C29.7094 21.9568 28.3991 23.6375 26.8063 24.8595C25.2135 26.0816 23.3893 26.806 21.5011 26.9661C19.6129 27.1262 17.7213 26.717 16 25.776ZM12.2337 22.4302C11.1738 22.5888 10.0977 22.4763 9.07698 22.1C8.05624 21.7237 7.11416 21.0923 6.31327 20.2478C5.51237 19.4032 4.87097 18.3648 4.43165 17.2014C3.99233 16.038 3.76513 14.7763 3.76513 13.5C3.76513 12.2237 3.99233 10.962 4.43165 9.79859C4.87097 8.63522 5.51237 7.59679 6.31327 6.75223C7.11416 5.90767 8.05624 5.2763 9.07698 4.90002C10.0977 4.52374 11.1738 4.41116 12.2337 4.56975C10.4097 7.03358 9.40481 10.2107 9.40898 13.5C9.40533 16.7892 10.4102 19.9661 12.2337 22.4302ZM19.7663 4.56975C20.8262 4.41116 21.9023 4.52374 22.923 4.90002C23.9438 5.2763 24.8858 5.90767 25.6867 6.75223C26.4876 7.59679 27.129 8.63522 27.5683 9.79859C28.0077 10.962 28.2349 12.2237 28.2349 13.5C28.2349 14.7763 28.0077 16.038 27.5683 17.2014C27.129 18.3648 26.4876 19.4032 25.6867 20.2478C24.8858 21.0923 23.9438 21.7237 22.923 22.1C21.9023 22.4763 20.8262 22.5888 19.7663 22.4302C21.5901 19.9663 22.595 16.7893 22.591 13.5C22.595 10.2107 21.5901 7.03369 19.7663 4.56975ZM16 6.47325C17.7231 8.1225 18.8247 10.6583 18.8247 13.5C18.8247 16.3417 17.7231 18.8775 16 20.5267C15.1177 19.6842 14.4056 18.615 13.9166 17.3985C13.4276 16.182 13.1742 14.8495 13.1753 13.5C13.1753 10.6583 14.2769 8.1225 16 6.47325Z" fill="black"/>
</svg>
